<svg height="512" viewBox="0 0 192 192" width="512" xmlns="http://www.w3.org/2000/svg"><path d="m140 0a52.059 52.059 0 0 0 -51.874 48.563 56.156 56.156 0 0 0 -45.785 39.437h107.318a56.155 56.155 0 0 0 -45.494-39.394 36 36 0 0 1 71.835 3.394v140h16v-140a52.059 52.059 0 0 0 -52-52z"/><path d="m32 96h128v16h-128z"/><circle cx="96" cy="176" r="8"/><circle cx="96" cy="152" r="8"/><circle cx="128" cy="176" r="8"/><circle cx="128" cy="152" r="8"/><circle cx="64" cy="176" r="8"/><circle cx="64" cy="152" r="8"/><circle cx="96" cy="128" r="8"/><circle cx="128" cy="128" r="8"/><circle cx="64" cy="128" r="8"/></svg>